<?xml version="1.0" encoding="utf-8"?>
<!-- Generator: Adobe Illustrator 21.1.0, SVG Export Plug-In . SVG Version: 6.00 Build 0)  -->
<svg version="1.1" id="logo" xmlns="http://www.w3.org/2000/svg" xmlns:xlink="http://www.w3.org/1999/xlink" x="0px" y="0px"
	 viewBox="0 0 62.4 127.9" style="enable-background:new 0 0 62.4 127.9;" xml:space="preserve">
<style type="text/css">
	.st0{fill:none;}
	.st1{fill:#996C29;}
</style>
<path class="st0" d="M31.3,6.9l-0.1-0.1l-0.1,0.1H31.3z"/>
<path class="st0" d="M35.3,62.6c0.5-0.3,0.6-0.9,0.3-1.4c-0.2-0.3-0.6-0.5-0.9-0.5c-1.2,0.1-2.3,0.2-3.5,0.2s-2.4-0.1-3.5-0.2
	c-0.6,0-1,0.4-1.1,0.9c0,0.4,0.2,0.7,0.5,0.9l3.7,2.1c0.3,0.2,0.7,0.2,1,0L35.3,62.6z"/>
<path class="st0" d="M47.6,16.3L40.2,12c-0.2-0.1-0.5-0.2-0.7-0.1c-5.5,1.3-11.1,1.3-16.6,0c-0.2-0.1-0.5,0-0.7,0.1l-7.3,4.2
	c-0.5,0.3-0.6,0.9-0.3,1.4c0.1,0.1,0.2,0.3,0.3,0.3c10,6.5,22.9,6.5,32.8,0c0.5-0.3,0.6-0.9,0.3-1.4C47.8,16.5,47.7,16.4,47.6,16.3z
	"/>
<path class="st1" d="M62.4,53.3V18.5c0-0.4-0.2-0.7-0.5-0.9L59,15.9l-0.1-0.1l0,0L50.5,11l-3.3-1.9l0,0l-15.5-9
	c-0.3-0.2-0.7-0.2-1,0l-15.5,9l0,0l-6.4,3.7l0,0l-5.3,3.1l0,0l-1.1,0.6l0,0l-1.9,1.1C0.2,17.8,0,18.1,0,18.5v34.8
	c0,0.4,0.2,0.7,0.5,0.9l30.2,17.4c0.3,0.2,0.7,0.2,1,0l30.2-17.4C62.2,54,62.4,53.7,62.4,53.3z M31.2,6.8l0.1,0.1h-0.2L31.2,6.8z
	 M22.2,12c0.2-0.1,0.5-0.2,0.7-0.1c5.5,1.3,11.1,1.3,16.6,0c0.2-0.1,0.5,0,0.7,0.1l7.3,4.2c0.5,0.3,0.6,0.9,0.3,1.4
	c-0.1,0.1-0.2,0.3-0.3,0.3c-10,6.5-22.9,6.5-32.8,0c-0.5-0.3-0.6-0.9-0.3-1.4c0.1-0.1,0.2-0.3,0.3-0.3L22.2,12z M6.5,21l0.7-0.4
	c0.4-0.2,0.8-0.2,1.1,0.1c13.3,10.9,32.3,10.9,45.6,0c0.3-0.3,0.8-0.3,1.1-0.1l0.7,0.4c0.3,0.2,0.5,0.5,0.5,0.9v2.6
	c0,0.4-0.1,0.8-0.3,1.1c-9.3,13.7-27.9,17.3-41.7,8c-3.2-2.1-5.9-4.9-8-8C6.1,25.3,6,24.9,6,24.5v-2.6C6,21.6,6.2,21.3,6.5,21
	L6.5,21z M6,40.6v-3.6c0-0.6,0.5-1,1-1c0.2,0,0.5,0.1,0.6,0.2c13.5,11.7,33.5,11.7,47.1,0c0.4-0.4,1.1-0.3,1.4,0.1
	c0.2,0.2,0.2,0.4,0.2,0.6v3.7c0,0.4-0.1,0.8-0.3,1.1c-9.3,13.7-27.9,17.3-41.7,8c-3.2-2.1-5.9-4.9-8-8C6.1,41.4,6,41,6,40.6L6,40.6z
	 M31.2,60.9c1.2,0,2.4-0.1,3.5-0.2c0.6,0,1,0.4,1.1,0.9c0,0.4-0.2,0.7-0.5,0.9l-3.6,2.1c-0.3,0.2-0.7,0.2-1,0L27,62.5
	c-0.5-0.3-0.6-0.9-0.3-1.4c0.2-0.3,0.6-0.5,0.9-0.5C28.8,60.8,30,60.9,31.2,60.9L31.2,60.9z"/>
<path class="st1" d="M36.8,72.4c-0.1,4.5,0.1,37,0,39.3c0,0.1,0,0.2,0,0.3c-0.4,1.2-3.6,11.2-3.7,11.4s-0.3,0.4-0.3,0.5
	c0-0.2,0-2,0-2s0.1-36.9,0-43.1c0-0.5-0.4-1-0.9-1c-0.6,0-1.5,0-2.1,0c-0.6,0-1,0.4-1,1c0,6.4,0.2,44.9,0,45.1
	c-0.1,0-0.2-0.1-0.3-0.2c-0.2-0.2-2.9-4.5-3.6-5.6c-0.1-0.1-0.1-0.3-0.2-0.5c-0.1-3.5,0.1-40.4,0-45.2c0-0.3-0.2-0.6-0.5-0.8
	c-0.5-0.3-1.4-0.8-2.2-1.2c-0.5-0.2-1.1,0-1.3,0.5c-0.1,0.1-0.1,0.2-0.1,0.4c-0.1,7.6-0.1,43.2,0,46.4c0,0.1,0,0.3,0.1,0.4
	c0.8,1.4,5.3,8.6,5.8,8.9c0.6,0.4,1.4,0.7,2.1,0.9h4c0,0,2.2-1,2.7-1.8c0.3-0.4,4.8-12.7,5.3-14.1c0,0,0-0.1,0-0.2
	c0.1-1.7,0.1-33.3,0-40.5c0-0.6-0.5-1-1-1c-0.1,0-0.3,0-0.4,0.1c-0.8,0.4-1.6,0.9-2.1,1.2C36.9,71.8,36.8,72.1,36.8,72.4z"/>
</svg>
